# xmcd
#
# Track frame offsets: 
#        150
#        18825
#        34957
#        49835
#        68995
#        84790
#        102095
#        120877
#        141482
#        157177
#        169600
#        187872
#
# Disc length: 2800 seconds
#
# Revision: 4
# Processed by: cddbd v1.5PL3 Copyright (c) Steve Scherf et al.
# Submitted via: ExactAudioCopy v0.95a3
#
DISCID=930aee0c
DTITLE=Wynonna - New Day Dawning
DYEAR=2000
DGENRE=Country
TTITLE0=Going Nowhere
TTITLE1=New Day Dawning
TTITLE2=Can't Nobody Love You (Like I Do)
TTITLE3=Chain Reaction
TTITLE4=Help Me
TTITLE5=I've Got Your Love
TTITLE6=Tuff Enuff
TTITLE7=Who Am I Trying To Fool
TTITLE8=Lost Without You
TTITLE9=He Rocks
TTITLE10=Learning To Live With Love Again
TTITLE11=I Can't Wait To Meet You
EXTD=YEAR: 2000
EXTT0=
EXTT1=
EXTT2=
EXTT3=
EXTT4=
EXTT5=
EXTT6=
EXTT7=
EXTT8=
EXTT9=
EXTT10=
EXTT11=
PLAYORDER=
